# xmcd
#
# Track frame offsets:
#  150
#  24898
#  46139
#  69519
#  88153
#  108393
#  126429
#  144685
#  158501
#  183945
#  202110
#  220896
#  243184
#  259110
#  275839
#
# Disc length: 3971 seconds
#
# Revision: 0
# Processed by: cddbd v1.5.1PL2 Copyright (c) Steve Scherf et al.
# Submitted via: Collectorz.com_Music_Collector 6.11
#
DISCID=da0f810f
DTITLE=Kacey Jones - Kacey Jones Sings Mickey Newbury
DYEAR=1900
DGENRE=Country
TTITLE0=Song of Sorrow
TTITLE1=Some Memories are Better Left Alone
TTITLE2=Ramblin' Blues
TTITLE3=Lie to Me Darlin'
TTITLE4=Apples Dipped In Candy
TTITLE5=Blue Sky Shining
TTITLE6=What Will I Do
TTITLE7=Lovers
TTITLE8=Time Was
TTITLE9=San Francisco Mabel Joy
TTITLE10=You've Always Got The Blues
TTITLE11=Why You Been Gone So Long
TTITLE12=Remember The Good
TTITLE13=Amen For Old Friends
TTITLE14=Goodnight
EXTD=
EXTT0=
EXTT1=
EXTT2=
EXTT3=
EXTT4=
EXTT5=
EXTT6=
EXTT7=
EXTT8=
EXTT9=
EXTT10=
EXTT11=
EXTT12=
EXTT13=
EXTT14=
PLAYORDER=
